File Name

Total Recall 1990 BRRip H264 LKRG-Wrath.mp4

File Size
Format : MPEG-4
Format profile : Base Media
Codec ID : isom
File size : 2.00 GiB
Duration : 1h 53mn
Overall bit rate : 2 519 Kbps

Video
ID : 1
Format : AVC
Format/Info : Advanced Video Codec
Format profile : High@L4.1
Format settings, CABAC : Yes
Format settings, ReFrames : 3 frames
Codec ID : avc1
Codec ID/Info : Advanced Video Coding
Duration : 1h 53mn
Bit rate mode : Variable
Bit rate : 1 939 Kbps
Maximum bit rate : 9 094 Kbps
Width : 1 280 pixels
Height : 688 pixels
Display aspect ratio : 1.860
Frame rate mode : Constant
Frame rate : 23.976 fps
Resolution : 24 bits
Colorimetry : 4:2:0
Scan type : Progressive
Bits/(Pixel*Frame) : 0.092
Stream size : 1.54 GiB (77%)

Audio #1
ID : 2
Format : AAC
Format/Info : Advanced Audio Codec
Format version : Version 4
Format profile : LC
Format settings, SBR : No
Codec ID : 40
Duration : 1h 53mn
Bit rate mode : Variable
Bit rate : 128 Kbps
Maximum bit rate : 136 Kbps
Channel(s) : 2 channels
Channel positions : L R
Sampling rate : 48.0 KHz
Resolution : 16 bits
Stream size : 104 MiB (5%)

Audio #2
ID : 3
Format : AAC
Format/Info : Advanced Audio Codec
Format version : Version 4
Format profile : LC
Format settings, SBR : No
Codec ID : 40
Duration : 1h 53mn
Bit rate mode : Variable
Bit rate : 448 Kbps
Maximum bit rate : 463 Kbps
Channel(s) : 6 channels
Channel positions : Front: L C R, Rear: L R, LFE
Sampling rate : 48.0 KHz
Resolution : 16 bits
Stream size : 364 MiB (18%)

Text
ID : 4
Format : Timed text
Codec ID : tx3g
Duration : 1h 49mn
Bit rate mode : Variable
Bit rate : 48 bps
Stream size : 38.7 KiB (0%)

English SRT : External

Language : English

 
http://www.imdb.com/title/tt0100802/

Release Date: 1 June 1990 (USA) 

Genre: Action | Adventure | Sci-Fi | Thriller 

Plot: When a man goes for virtual vacation memories of the planet Mars, an unexpected and harrowing series of events forces him to go to the planet for real, or does he?

Cast: 
Arnold Schwarzenegger ... Douglas Quaid / Hauser
Rachel Ticotin ... Melina
Sharon Stone ... Lori
Ronny Cox ... Vilos Cohaagen
Michael Ironside ... Richter
Marshall Bell ... George / Kuato
Mel Johnson Jr. ... Benny
Michael Champion ... Helm
Roy Brocksmith ... Dr. Edgemar
Ray Baker ... Bob McClane
Rosemary Dunsmore ... Dr. Lull
David Knell ... Ernie
Alexia Robinson ... Tiffany
Dean Norris ... Tony
Mark Carlton ... Bartender



Screenshots
 
http://postimg.com/image/18000/17111.jpg

